# xmcd
#
# Track frame offsets:
#	150
#	23667
#	47853
#	72345
#	96336
#	121497
#	146463
#	192390
#	219049
#
# Disc length: 3270 seconds
#
# Revision: 1
# Processed by: cddbd v1.5.1PL2 Copyright (c) Steve Scherf et al.
# Submitted via: EasyCDDAExtractor 9.0.0.1
#
DISCID=7f0cc409
DTITLE=Aerosmith - Sjöhistoriska Muséet Stockholm 29-06-94
DYEAR=1994
DGENRE=Hard Rock
TTITLE0=Flesh
TTITLE1=Amazing
TTITLE2=Cryin'
TTITLE3=Back In The Saddle
TTITLE4=Janie's Got A Gun
TTITLE5=Love In An Elevator
TTITLE6=Sweet Emotion
TTITLE7=Living On The Edge
TTITLE8=Walk This Way
EXTD=
EXTT0=
EXTT1=
EXTT2=
EXTT3=
EXTT4=
EXTT5=
EXTT6=
EXTT7=
EXTT8=
PLAYORDER=
